<?xml version="1.0" encoding="utf-8"?>
<!-- Generator: Adobe Illustrator 16.0.4, SVG Export Plug-In . SVG Version: 6.00 Build 0)  -->
<!DOCTYPE svg PUBLIC "-//W3C//DTD SVG 1.1//EN" "http://www.w3.org/Graphics/SVG/1.1/DTD/svg11.dtd">
<svg version="1.1" id="Layer_1" xmlns="http://www.w3.org/2000/svg" xmlns:xlink="http://www.w3.org/1999/xlink" x="0px" y="0px"
	 width="129.986px" height="91.717px" viewBox="0 0 129.986 91.717" enable-background="new 0 0 129.986 91.717"
	 xml:space="preserve">
<polygon fill="#60CDA2" points="0,0 129.986,91.717 129.986,49.5 54,0 "/>
<g>
	<defs>
		<path id="SVGID_1_" d="M113.898,60.635c-0.233,0.334-0.327,0.65-0.281,0.949s0.229,0.561,0.548,0.783
			c0.653,0.459,1.224,0.338,1.712-0.359c0.242-0.346,0.348-0.67,0.317-0.969c-0.031-0.301-0.211-0.566-0.54-0.797
			c-0.327-0.229-0.639-0.309-0.937-0.24C114.42,60.068,114.147,60.281,113.898,60.635z M110.321,64.713
			c-0.17,0.242-0.191,0.506-0.064,0.791c0.127,0.285,0.39,0.566,0.786,0.844c0.614,0.43,1.134,0.662,1.558,0.697
			s0.738-0.094,0.942-0.385c0.161-0.23,0.194-0.453,0.097-0.666c-0.096-0.213-0.369-0.477-0.816-0.789l-0.854-0.598
			c-0.323-0.227-0.633-0.33-0.93-0.312C110.742,64.314,110.503,64.453,110.321,64.713z M118.788,61.498l-0.434,0.619l-1.025-0.467
			c0.005,0.17-0.023,0.355-0.083,0.557c-0.06,0.201-0.154,0.395-0.282,0.576c-0.383,0.547-0.873,0.846-1.47,0.895
			s-1.227-0.158-1.889-0.621c-0.169-0.119-0.314-0.24-0.434-0.361c-0.348-0.02-0.593,0.07-0.734,0.271
			c-0.085,0.123-0.092,0.254-0.021,0.393c0.071,0.141,0.258,0.318,0.562,0.531l0.926,0.648c0.585,0.41,0.943,0.846,1.072,1.309
			c0.129,0.463,0.029,0.928-0.3,1.398c-0.421,0.602-0.994,0.893-1.719,0.871c-0.724-0.02-1.556-0.359-2.493-1.016
			c-0.723-0.506-1.185-1.021-1.387-1.543c-0.202-0.523-0.137-1.021,0.195-1.494c0.229-0.326,0.524-0.529,0.886-0.607
			c0.362-0.078,0.759-0.029,1.19,0.145c-0.105-0.17-0.157-0.359-0.155-0.57c0.002-0.211,0.058-0.395,0.168-0.551
			c0.139-0.199,0.312-0.328,0.521-0.387c0.208-0.061,0.47-0.08,0.785-0.059c-0.192-0.311-0.28-0.66-0.265-1.047
			c0.016-0.389,0.149-0.76,0.4-1.119c0.403-0.576,0.897-0.895,1.482-0.957s1.213,0.141,1.885,0.611
			c0.15,0.105,0.301,0.227,0.451,0.363c0.15,0.135,0.259,0.244,0.327,0.324L118.788,61.498z M109.018,62.568l-1.133-0.793
			l2.285-3.264c0.287-0.41,0.418-0.773,0.395-1.09c-0.024-0.316-0.215-0.6-0.573-0.852c-0.477-0.334-0.924-0.438-1.342-0.311
			c-0.418,0.127-0.858,0.521-1.322,1.184l-1.852,2.645l-1.128-0.789l3.717-5.309l0.883,0.619l-0.329,0.807l0.058,0.041
			c0.337-0.143,0.701-0.178,1.091-0.109c0.391,0.068,0.766,0.229,1.124,0.479c1.273,0.893,1.457,1.986,0.549,3.283L109.018,62.568z
			 M106.242,50.617c0.141-0.201,0.305-0.316,0.492-0.35c0.187-0.031,0.382,0.025,0.587,0.168c0.198,0.141,0.315,0.303,0.349,0.488
			s-0.02,0.381-0.161,0.582c-0.134,0.191-0.295,0.305-0.483,0.338c-0.188,0.033-0.381-0.021-0.579-0.16
			c-0.205-0.143-0.324-0.309-0.357-0.496S106.107,50.811,106.242,50.617z M102.735,58.17l-1.128-0.789l3.717-5.309l1.128,0.789
			L102.735,58.17z M99.995,56.25l-1.128-0.789l5.229-7.469l1.127,0.791L99.995,56.25z M98.501,48.424
			c-0.358-0.25-0.725-0.338-1.101-0.262c-0.375,0.074-0.735,0.316-1.082,0.723l2.41,1.688c0.3-0.443,0.427-0.85,0.38-1.219
			S98.859,48.674,98.501,48.424z M95.454,53.215c-0.826-0.578-1.303-1.271-1.431-2.078c-0.128-0.809,0.103-1.635,0.695-2.479
			c0.607-0.867,1.3-1.398,2.08-1.592s1.546-0.025,2.302,0.504c0.701,0.49,1.105,1.09,1.214,1.801
			c0.108,0.709-0.099,1.438-0.621,2.184l-0.427,0.609l-3.538-2.477c-0.345,0.525-0.483,1.02-0.414,1.48
			c0.068,0.459,0.341,0.857,0.818,1.191c0.313,0.219,0.626,0.395,0.938,0.523c0.312,0.131,0.671,0.236,1.078,0.314l-0.642,0.918
			c-0.367-0.062-0.71-0.164-1.03-0.307C96.156,53.666,95.815,53.467,95.454,53.215z M90.635,45.52l1.196-0.35l2.799-0.586
			l1.301,0.91l-3.732,0.785l0.15,4.617l-1.325-0.928l-0.074-3.52l-0.975,0.074l-1.274,1.818l-1.118-0.781l5.229-7.469l1.118,0.783
			l-2.551,3.643L90.606,45.5L90.635,45.52z M85.014,41.584l1.196-0.35l2.799-0.586l1.301,0.91l-3.732,0.785l0.149,4.617
			l-1.325-0.928l-0.074-3.52l-0.976,0.074l-1.274,1.82l-1.118-0.783l5.229-7.469l1.118,0.783l-2.551,3.643l-0.773,0.982
			L85.014,41.584z M83.856,34.943c0.141-0.201,0.305-0.318,0.492-0.35c0.187-0.031,0.382,0.023,0.587,0.168
			c0.198,0.139,0.314,0.301,0.349,0.488c0.034,0.186-0.019,0.379-0.16,0.58c-0.134,0.193-0.295,0.305-0.483,0.338
			c-0.188,0.033-0.38-0.02-0.579-0.158c-0.205-0.145-0.324-0.309-0.357-0.496C83.671,35.324,83.721,35.135,83.856,34.943z
			 M80.349,42.494l-1.128-0.789l3.717-5.309l1.128,0.789L80.349,42.494z M75.545,39.131l1.047-2.957
			c0.101-0.32,0.377-1.035,0.83-2.145l-0.043-0.031c-0.791,0.734-1.367,1.244-1.729,1.529L73.217,37.5l-1.248-0.873l2.229-6.35
			l1.152,0.807l-1.155,3.09c-0.299,0.754-0.578,1.383-0.837,1.889l0.029,0.02c0.196-0.211,0.432-0.445,0.709-0.701
			s0.493-0.443,0.646-0.561l2.762-2.229l1.238,0.867l-1.173,3.342c-0.062,0.189-0.17,0.473-0.324,0.846s-0.288,0.654-0.4,0.842
			l0.038,0.027c0.324-0.359,0.821-0.832,1.492-1.416l2.518-2.135l1.133,0.793l-5.214,4.26L75.545,39.131z M69.876,33.945
			c0.275,0.193,0.581,0.342,0.916,0.449l-0.595,0.85c-0.163-0.033-0.355-0.1-0.578-0.201s-0.439-0.225-0.65-0.373
			c-1.069-0.748-1.209-1.686-0.42-2.812l2.003-2.861l-0.725-0.506l0.35-0.5l1.066,0.131l1.17-0.854l0.696,0.488l-0.827,1.18
			l1.512,1.059l-0.598,0.855l-1.512-1.059l-1.989,2.84c-0.19,0.273-0.263,0.521-0.218,0.746
			C69.522,33.602,69.656,33.791,69.876,33.945z M65.758,32.277l-1.133-0.793l2.285-3.264c0.287-0.408,0.418-0.771,0.395-1.09
			c-0.023-0.316-0.214-0.6-0.573-0.852c-0.477-0.334-0.924-0.438-1.342-0.311s-0.859,0.521-1.322,1.184l-1.852,2.646l-1.128-0.791
			l3.717-5.309l0.883,0.619l-0.329,0.807l0.058,0.041c0.337-0.141,0.701-0.178,1.091-0.109s0.765,0.229,1.124,0.479
			c1.274,0.893,1.457,1.986,0.549,3.283L65.758,32.277z M57.793,22.73c-0.858,1.227-0.834,2.156,0.071,2.791
			c0.896,0.627,1.773,0.328,2.631-0.898c0.849-1.213,0.823-2.135-0.08-2.766c-0.474-0.332-0.927-0.416-1.359-0.252
			C58.625,21.771,58.204,22.146,57.793,22.73z M61.657,25.438c-0.607,0.867-1.303,1.387-2.089,1.562
			c-0.785,0.176-1.575-0.016-2.368-0.57c-0.496-0.348-0.856-0.768-1.08-1.258c-0.224-0.49-0.292-1.018-0.203-1.58
			s0.327-1.121,0.714-1.674c0.603-0.861,1.294-1.379,2.074-1.553c0.78-0.174,1.571,0.021,2.375,0.584
			c0.768,0.537,1.203,1.209,1.305,2.018C62.487,23.775,62.244,24.598,61.657,25.438z M50.96,21.916l-1.133-0.793l2.286-3.264
			c0.287-0.408,0.418-0.771,0.395-1.09c-0.023-0.316-0.214-0.6-0.573-0.852c-0.477-0.334-0.924-0.438-1.342-0.311
			s-0.859,0.521-1.323,1.184l-1.852,2.646l-1.128-0.791l3.717-5.309l0.883,0.619l-0.329,0.807l0.058,0.041
			c0.337-0.143,0.701-0.178,1.092-0.109s0.765,0.229,1.124,0.479c1.273,0.893,1.457,1.986,0.549,3.283L50.96,21.916z M43.411,16.631
			l4.914-7.018l1.147,0.803l-4.914,7.018L43.411,16.631z"/>
	</defs>
	<clipPath id="SVGID_2_">
		<use xlink:href="#SVGID_1_"  overflow="visible"/>
	</clipPath>
	<g clip-path="url(#SVGID_2_)">
		<defs>
			<rect id="SVGID_3_" x="-570.678" y="-722.072" width="1425" height="1205"/>
		</defs>
		<clipPath id="SVGID_4_">
			<use xlink:href="#SVGID_3_"  overflow="visible"/>
		</clipPath>
		
			<rect x="32.288" y="28.166" transform="matrix(-0.8192 -0.5736 0.5736 -0.8192 124.9385 117.7247)" clip-path="url(#SVGID_4_)" fill="#FFFFFF" width="97.48" height="22"/>
	</g>
</g>
</svg>
