<svg width="57px" height="26px" viewBox="-2 -2 57 26" version="1.1" xmlns="http://www.w3.org/2000/svg" xmlns:xlink="http://www.w3.org/1999/xlink">
    <!-- Generator: Sketch 40.3 (33839) - http://www.bohemiancoding.com/sketch -->
    <desc>Created with Sketch.</desc>
    <defs></defs>
    <g id="Page-1" stroke="none" stroke-width="1" fill="none" fill-rule="evenodd" transform="translate(-1.000000, -2.000000)">
        <polygon id="Stroke-1" fill="#60CDA2" points="17.3339351 15.719487 17.3339351 25.303313 17.3339351 25.8685304 17.9203225 25.8685304 38.5415162 25.8685304 39.1279037 25.8685304 39.1279037 25.303313 39.1279037 15.4292478 39.1279037 15.0457478 37.9551288 15.0457478 37.9551288 15.4292478 37.9551288 25.303313 38.5415162 24.7380957 17.9203225 24.7380957 18.5067099 25.303313 18.5067099 15.719487 18.5067099 15.4928348 17.3339351 15.4928348"></polygon>
        <polygon id="Stroke-3" fill="#60CDA2" points="28.6454406 2.73311253 27.8161682 2.73311703 40.8404195 15.2868779 41.6696873 14.4875308 28.645436 1.93376993 28.2307974 1.53410988 27.8161636 1.93377443 14.7922054 14.4875353 15.6214825 15.2868734"></polygon>
        <polygon id="Stroke-4" fill="#60CDA2" points="51.8117571 21.41425 52.3981445 21.41425 52.3981445 20.8490326 52.3981445 13.8044457 52.3981445 13.4650326 51.2253696 13.4650326 51.2253696 13.8044457 51.2253696 20.8490326 51.8117571 20.2838152 41.7789613 20.2838152 41.7789613 21.41425"></polygon>
        <polygon id="Stroke-5" fill="#60CDA2" points="44.2723432 1.19902775 43.4430715 1.19903283 54.9720348 12.3114893 55.8013013 11.5121411 44.272338 0.399684563 43.8576994 2.56772158e-05 43.4430662 0.399689645 37.8577259 5.7833853 38.6870029 6.5827234"></polygon>
        <polygon id="Stroke-7" fill="#60CDA2" points="3.98925236 20.2838152 4.57563979 20.8490326 4.57563979 13.8044457 4.57563979 13.4650326 3.40286492 13.4650326 3.40286492 13.8044457 3.40286492 20.8490326 3.40286492 21.41425 3.98925236 21.41425 14.0220482 21.41425 14.0220482 20.2838152"></polygon>
        <polygon id="Stroke-8" fill="#60CDA2" points="12.3579432 0.399689645 11.9433047 2.05951804e-05 11.5286662 0.399689645 -3.97640247e-06 11.5121462 0.829273086 12.3114843 12.3579432 1.19902775 11.5286662 1.19902775 17.1140065 6.5827234 17.9432836 5.7833853"></polygon>
        <polygon id="Stroke-10" fill="#60CDA2" points="25.957378 15.0458609 25.3709906 15.6110783 31.0912 15.6110783 30.5048126 15.0458609 30.5048126 23.5074478 31.6775874 23.5074478 31.6775874 15.0458609 31.6775874 14.4806435 31.0912 14.4806435 25.3709906 14.4806435 24.7846031 14.4806435 24.7846031 15.0458609 24.7846031 23.573013 25.957378 23.573013"></polygon>
    </g>
</svg>