<svg width="38px" height="36px" viewBox="-1 0 96 87" version="1.1" xmlns="http://www.w3.org/2000/svg" xmlns:xlink="http://www.w3.org/1999/xlink">
    <!-- Generator: Sketch 41.2 (35397) - http://www.bohemiancoding.com/sketch -->
    <desc>Created with Sketch.</desc>
    <defs></defs>
    <polygon id="Stroke-1" stroke="none" fill="#ABABAB" fill-rule="evenodd" points="87.5140235 49.3901561 89.6354602 49.3900398 59.7184602 19.4730398 59.7184329 21.5943874 79.1924329 2.1213874 77.0711671 1.25951456e-05 57.5971671 19.4730126 56.5364524 20.5336728 57.5971398 21.5943602 87.5141398 51.5113602 88.5749163 52.5721366 89.6355765 51.5112439 94.1955765 46.9502439 92.0740235 44.8291561"></polygon>
    <polygon id="Stroke-3" stroke="none" fill="#ABABAB" fill-rule="evenodd" points="34.8868398 21.5028602 34.8868398 19.3815398 4.69683983 49.5715398 6.81816017 49.5715398 2.12116017 44.8745398 -0.00016017178 46.9958602 4.69683983 51.6928602 5.7575 52.7535203 6.81816017 51.6928602 37.0081602 21.5028602 38.0688203 20.4422 37.0081602 19.3815398 17.8091602 0.182539828 15.6878398 2.30386017"></polygon>
    <polygon id="Stroke-6" stroke="none" fill="#ABABAB" fill-rule="evenodd" points="73.103598 54.1315817 75.224802 56.2530183 84.345802 47.1330183 82.224598 45.0115817"></polygon>
    <polygon id="Stroke-7" stroke="none" fill="#ABABAB" fill-rule="evenodd" points="57.5972889 26.5870908 58.5926473 26.1493156 37.6156473 27.0613156 38.7414602 27.4992398 33.8164602 22.5742398 31.6951398 24.6955602 36.6201398 29.6205602 37.0867247 30.0871451 37.7459527 30.0584844 58.7229527 29.1464844 59.3057582 29.1211462 59.7183111 28.7087092 63.2763111 25.1517092 61.1552889 23.0300908"></polygon>
    <polygon id="Stroke-8" stroke="none" fill="#ABABAB" fill-rule="evenodd" points="17.5571398 54.8845602 19.6784602 52.7632398 11.6524602 44.7372398 9.53113983 46.8585602"></polygon>
    <path d="M23.5028398,59.9524398 C22.1744126,61.281561 20.0205874,61.281561 18.6924371,59.9527169 C17.3639466,58.6242263 17.3639466,56.4699737 18.6921602,55.1417602 C20.0203737,53.8135466 22.1746263,53.8135466 23.5028398,55.1417602 C24.8310534,56.4699737 24.8310534,58.6242263 23.5028398,59.9524398 Z M16.5708398,53.0204398 C14.0710534,55.5202263 14.0710534,59.5739737 16.5708398,62.0737602 C19.0704126,64.574639 23.1245874,64.574639 25.6244371,62.0734831 C28.1239466,59.5739737 28.1239466,55.5202263 25.6241602,53.0204398 C23.1243737,50.5206534 19.0706263,50.5206534 16.5708398,53.0204398 Z" id="Stroke-9" stroke="none" fill="#ABABAB" fill-rule="evenodd"></path>
    <path d="M30.7997398,67.2493398 C29.4715263,68.5775534 27.3172737,68.5775534 25.9890602,67.2493398 C24.6608466,65.9211263 24.6608466,63.7668737 25.9890602,62.4386602 C27.3172737,61.1104466 29.4715263,61.1104466 30.7997398,62.4386602 C32.1279534,63.7668737 32.1279534,65.9211263 30.7997398,67.2493398 Z M23.8677398,60.3173398 C21.3679534,62.8171263 21.3679534,66.8708737 23.8677398,69.3706602 C26.3675263,71.8704466 30.4212737,71.8704466 32.9210602,69.3706602 C35.4208466,66.8708737 35.4208466,62.8171263 32.9210602,60.3173398 C30.4212737,57.8175534 26.3675263,57.8175534 23.8677398,60.3173398 Z" id="Stroke-11" stroke="none" fill="#ABABAB" fill-rule="evenodd"></path>
    <path d="M37.7310629,74.1822169 C36.4034116,75.5098681 34.2491591,75.5094388 32.9206602,74.1809398 C31.5924466,72.8527263 31.5924466,70.6984737 32.9206602,69.3702602 C34.2488737,68.0420466 36.4031263,68.0420466 37.7313398,69.3702602 C39.0595996,70.6985199 39.0595996,72.8529861 37.7310629,74.1822169 Z M30.7993398,67.2489398 C28.2995534,69.7487263 28.2995534,73.8024737 30.7993398,76.3022602 C33.2992224,78.8021427 37.3529698,78.8029506 39.8526602,76.3032602 C42.3524004,73.8022139 42.3524004,69.7486801 39.8526602,67.2489398 C37.3528737,64.7491534 33.2991263,64.7491534 30.7993398,67.2489398 Z" id="Stroke-13" stroke="none" fill="#ABABAB" fill-rule="evenodd"></path>
    <path d="M44.9198398,81.4036398 C43.5916263,82.7318534 41.4373737,82.7318534 40.1091602,81.4036398 C38.7809466,80.0754263 38.7809466,77.9211737 40.1091602,76.5929602 C41.4372411,75.2641855 43.5912797,75.2644001 44.9198398,76.5929602 C46.2480534,77.9211737 46.2480534,80.0754263 44.9198398,81.4036398 Z M37.9875629,74.4719169 C35.4880534,76.9714263 35.4880534,81.0251737 37.9878398,83.5249602 C40.4876263,86.0247466 44.5413737,86.0247466 47.0411602,83.5249602 C49.5409466,81.0251737 49.5409466,76.9714263 47.0411602,74.4716398 C44.5410295,71.9715091 40.4870686,71.9711052 37.9875629,74.4719169 Z" id="Stroke-15" stroke="none" fill="#ABABAB" fill-rule="evenodd"></path>
    <path d="M29.2324398,43.9167398 L28.2671975,44.8819822 L29.1374444,45.9336741 C29.6319628,46.5312987 30.4807922,47.3812752 31.6204928,48.2311606 C35.269367,50.9521601 39.273395,51.6247232 42.9990886,48.76223 C43.3819308,48.468088 43.7564964,48.1382059 44.1225891,47.7722312 L48.2270185,43.6658018 L48.3753874,43.5173606 L48.4773171,43.3338983 C48.6030059,43.1076723 48.9445216,42.6780257 49.5138061,42.2309843 C50.5622176,41.4076993 51.9198405,40.9359249 53.6755838,41.0032969 L58.8017792,41.4556406 L57.8724398,41.0220602 L73.7424398,56.8920602 L75.8637602,54.7707398 L59.9937602,38.9007398 L59.6079474,38.5149271 L59.0644208,38.4671594 L53.8644208,38.0101594 C51.3007233,37.9099601 49.2525872,38.621688 47.6609912,39.8715189 C46.745929,40.5900888 46.1609283,41.3260535 45.8548829,41.8769017 L46.1051815,41.5449982 L42.0011815,45.6509982 C41.726284,45.925807 41.4494233,46.1696398 41.1713306,46.3833016 C38.7142378,48.2711142 36.1047019,47.8327861 33.413882,45.8262166 C32.8742339,45.423796 32.3821347,44.9904546 31.950747,44.5584839 C31.6975208,44.3049155 31.5263851,44.114941 31.4487556,44.0211259 L31.3537602,46.0380602 L48.1817602,29.2100602 L46.0604398,27.0887398 L29.2324398,43.9167398 Z" id="Stroke-17" stroke="none" fill="#ABABAB" fill-rule="evenodd"></path>
    <path d="M73.1608613,61.0066185 C71.8644694,62.3030103 69.5932401,62.2093941 68.0932035,60.7100832 L63.2624602,55.8793398 L61.1411398,58.0006602 L65.9721398,62.8316602 C68.6066921,65.4649379 72.7734363,65.636684 75.2824602,63.1276602 C77.7916507,60.6171511 77.6195292,56.4514088 74.9854602,53.8173398 L72.8641398,55.9386602 C74.36411,57.4386304 74.4579132,59.708885 73.1608613,61.0066185 Z" id="Stroke-19" stroke="none" fill="#ABABAB" fill-rule="evenodd"></path>
    <path d="M66.2685398,67.8979398 C64.9716256,69.1955355 62.7016063,69.1019602 61.2006036,67.6016834 L56.3698602,62.7709398 L54.2485398,64.8922602 L59.0795398,69.7232602 C61.7151556,72.3576015 65.8811073,72.5293314 68.3901387,70.0189815 C70.8992056,67.5099148 70.7278499,63.3429296 68.0938602,60.7089398 L65.9725398,62.8302602 C67.4721617,64.3298821 67.5655521,66.6009275 66.2685398,67.8979398 Z" id="Stroke-21" stroke="none" fill="#ABABAB" fill-rule="evenodd"></path>
    <path d="M59.3769398,74.7894398 C58.0801088,76.0869522 55.8091098,75.9935637 54.3090035,74.4941832 L49.4782602,69.6634398 L47.3569398,71.7847602 L52.1879398,76.6157602 C54.8227451,79.2492908 58.9896937,79.4206449 61.4985387,76.9104815 C64.007518,74.4015024 63.8353712,70.2355509 61.2012602,67.6014398 L59.0799398,69.7227602 C60.5798546,71.222675 60.6736582,73.4927214 59.3769398,74.7894398 Z" id="Stroke-23" stroke="none" fill="#ABABAB" fill-rule="evenodd"></path>
    <path d="M52.1809398,81.9865398 C50.7356564,83.431113 48.3603352,83.4123331 46.8765168,81.9277965 L44.7546832,84.0486035 C47.4025744,86.6977764 51.6772574,86.731573 54.3019995,84.1081208 C56.9264813,81.483639 56.8926831,77.2079628 54.2442602,74.5595398 L52.1229398,76.6808602 C53.6072313,78.1651516 53.6260155,80.5414642 52.1809398,81.9865398 Z" id="Stroke-25" stroke="none" fill="#ABABAB" fill-rule="evenodd"></path>
</svg>