
<svg width="205px" height="205px" viewBox="0 0 205 205" version="1.1" xmlns="http://www.w3.org/2000/svg" xmlns:xlink="http://www.w3.org/1999/xlink">
    <!-- Generator: Sketch 41.2 (35397) - http://www.bohemiancoding.com/sketch -->
    <desc>Created with Sketch.</desc>
    <defs></defs>
    <g id="Page-1" stroke="none" stroke-width="1" fill="none" fill-rule="evenodd">
        <path d="M205,102.5 C205,159.110304 159.110304,205 102.5,205 C45.8896957,205 0,159.110304 0,102.5 C0,45.8896957 45.8896957,0 102.5,0 C159.110304,0 205,45.8896957 205,102.5" id="Fill-1" fill="#60CDA2"></path>
        <path d="M184,136.500462 C184,139.538196 148.182327,142 104,142 C59.8167844,142 24,139.538196 24,136.500462 C24,133.462728 59.8167844,131 104,131 C148.182327,131 184,133.462728 184,136.500462" id="Fill-3" fill="#33A379"></path>
        <path d="M55.0021342,126 L55.0021342,59.6928876 C55.0021342,59.6928876 54.6951056,54.0204443 61.4461754,54.0204443 L152.067673,54.0204443 C152.067673,54.0204443 158,53.2999489 158,60.4133831 L158,126 L55.0021342,126 Z" id="Fill-5" fill="#284E5B"></path>
        <path d="M59,120 L151.998576,120 L151.998576,60.2675245 C151.998576,60.2675245 152.101285,59.0465791 150.562428,59.0465791 L60.8469855,59.0465791 C60.8469855,59.0465791 59,58.5383683 59,60.8793253 L59,120 Z" id="Fill-7" fill="#25A6B4"></path>
        <path d="M46,130.000441 L46,130.000441 C46,132.76122 47.8208637,135 50.0692733,135 L159.931619,135 C162.177351,135 164,132.76122 164,130.000441 L164,125 L46,125 L46,130.000441 Z" id="Fill-9" fill="#E8E6E7"></path>
        <polygon id="Fill-11" fill="#F4F4F4" points="85.6016846 74.645752 85.1673554 101 99.3226092 93.3395831 103 85.873584 93.9920307 79.7116935"></polygon>
        <polygon id="Fill-13" fill="#F4F4F4" points="125.375366 74.9819946 125.459106 101.216675 117.338047 97.467381 111.634122 91.4321744 106 83.7017275 115.295621 79.7265836"></polygon>
        <path d="M85.5004883,100.896729 L103.035264,86 L107.885218,86 L124.998296,100.40117 C124.998296,100.40117 125.157048,103 122.410108,103 L90.4953613,102.781372 C90.4953613,102.781372 85.596219,103.070423 85.5489502,101.02771 L85.8571777,100.85144" id="Fill-15" fill="#FFFFFF"></path>
        <path d="M86,74.9942209 L103.522861,89.1005546 C103.522861,89.1005546 105.279931,91.1243067 107.509323,89.1005546 L125,75.2539213 C125,75.2539213 124.953029,73 122.853243,73 L88.477295,73 C88.477295,73 86.0461013,73.1685012 86,74.9942209" id="Fill-17" fill="#E0E0E0"></path>
        <path d="M88.0378641,73.8839649 C86.8552319,73.8839649 85.8932267,74.8253875 85.8932267,75.9833815 L85.8932267,100.017503 C85.8932267,101.174613 86.8552319,102.116035 88.0378641,102.116035 L122.962136,102.116035 C124.144768,102.116035 125.106773,101.174613 125.106773,100.017503 L125.106773,75.9833815 C125.106773,74.8253875 124.144768,73.8839649 122.962136,73.8839649 L88.0378641,73.8839649 Z M122.962136,103 L88.0378641,103 C86.3621708,103 85,101.662561 85,100.017503 L85,75.9833815 C85,74.3383228 86.3621708,73 88.0378641,73 L122.962136,73 C124.637829,73 126,74.3383228 126,75.9833815 L126,100.017503 C126,101.662561 124.637829,103 122.962136,103 L122.962136,103 Z" id="Fill-19" fill="#FFFFFF"></path>
    </g>
</svg>