
<svg width="38px" height="35px" viewBox="0 0 38 35" version="1.1" xmlns="http://www.w3.org/2000/svg" xmlns:xlink="http://www.w3.org/1999/xlink">
    <!-- Generator: Sketch 40.1 (33804) - http://www.bohemiancoding.com/sketch -->
    <desc>Created with Sketch.</desc>
    <defs></defs>
    <path d="M30.4410834,11.2055813 L30.6630242,11.7413938 L30.6630242,6.33204555 C30.6630242,5.51812903 30.0032368,4.85834167 29.1893203,4.85834167 L26.8646594,4.85834167 C26.0507429,4.85834167 25.3909556,5.51812903 25.3909556,6.33204555 L25.3909556,7.9848318 L26.6845214,7.4490193 L19.6739141,0.438412027 C19.3543593,0.118857278 18.915779,-0.0329015495 18.475161,0.00596884414 L18.5417497,0.76079068 L18.6082994,0.00596539605 C18.1676763,-0.0328824439 17.7294404,0.11880417 17.4097926,0.43820495 L0.441594543,17.4064029 C-0.147198181,17.9951956 -0.147198181,18.9498372 0.441594543,19.5386299 L2.32748035,21.4247683 C2.91663266,22.0134129 3.87100698,22.0134129 4.45975399,21.4249197 L6.19299717,19.6915503 L4.89941185,19.1557573 L4.89941185,33.5262961 C4.89941185,34.3402528 5.5592394,35 6.37324203,35 L16.4978365,35 L17.2555898,35 L17.2555898,34.2422467 L17.2555898,29.0239786 L17.2555898,28.5814189 L16.8701265,28.363986 C15.8045356,27.7629052 15.1321125,26.6369655 15.1321125,25.3925722 C15.1321125,23.5095184 16.658696,21.9829349 18.5417497,21.9829349 C20.4248035,21.9829349 21.951387,23.5095184 21.951387,25.3925722 C21.951387,26.6369655 21.2789639,27.7629052 20.213373,28.363986 L19.8279097,28.5814189 L19.8279097,29.0239786 L19.8279097,34.2422467 L19.8279097,35 L20.585663,35 L30.5785347,35 C31.3924512,35 32.0522386,34.3402126 32.0522386,33.5262961 L32.0522386,19.0240345 L30.7586728,19.559847 L32.6236299,21.4248042 C33.2124925,22.0134129 34.1667405,22.0134129 34.7556259,21.4250352 L36.6419229,19.538612 C37.2306977,18.9498372 37.2306977,17.9951956 36.6419049,17.4064029 L30.4410834,11.2055813 Z" id="Page-1" stroke="none" fill="#60CDA2" fill-rule="evenodd"></path>
</svg>