<svg width="33px" height="31px" viewBox="1 3 93 87" version="1.1" xmlns="http://www.w3.org/2000/svg" xmlns:xlink="http://www.w3.org/1999/xlink">
    <!-- Generator: Sketch 41.2 (35397) - http://www.bohemiancoding.com/sketch -->
    <desc>Created with Sketch.</desc>
    <defs></defs>
    <g id="Page-1" stroke="none" stroke-width="1" fill="none" fill-rule="evenodd" transform="translate(1.000000, 3.000000)">
        <polygon id="Stroke-1" fill="#ABABAB" points="9.1211 50.6228 9.1211 84.5348 9.1211 86.5348 11.1211 86.5348 81.4541 86.5348 83.4541 86.5348 83.4541 84.5348 83.4541 49.5958 83.4541 48.2388 79.4541 48.2388 79.4541 49.5958 79.4541 84.5348 81.4541 82.5348 11.1211 82.5348 13.1211 84.5348 13.1211 50.6228 13.1211 49.8208 9.1211 49.8208"></polygon>
        <polygon id="Stroke-3" fill="#ABABAB" points="47.7014136 4.67101356 44.8730024 4.67102948 89.2950024 49.0920295 92.1233976 46.2635705 47.7013976 1.84257052 46.2871841 0.428388793 44.8729864 1.84258644 0.451986438 46.2635864 3.28041356 49.0920136"></polygon>
        <polygon id="Stroke-10" fill="#ABABAB" points="38.5332 48.2392 36.5332 50.2392 56.0432 50.2392 54.0432 48.2392 54.0432 78.1802 58.0432 78.1802 58.0432 48.2392 58.0432 46.2392 56.0432 46.2392 36.5332 46.2392 34.5332 46.2392 34.5332 48.2392 34.5332 78.4122 38.5332 78.4122"></polygon>
    </g>
</svg>