
<svg width="26px" height="26px" viewBox="-1 -1 26 26" version="1.1" xmlns="http://www.w3.org/2000/svg" xmlns:xlink="http://www.w3.org/1999/xlink">
    <!-- Generator: Sketch 40.3 (33839) - http://www.bohemiancoding.com/sketch -->
    <desc>Created with Sketch.</desc>
    <defs></defs>
    <circle id="Oval-2" stroke="none" fill="#777777" fill-rule="evenodd" cx="11.5" cy="7.5" r="1.5"></circle>
    <polygon id="Fill-3" stroke="none" fill="#777777" fill-rule="evenodd" points="14 18.050944 10 18.050944 10 16.6407552 11 16.6407552 11 12.4101888 10 12.4101888 10 11 13 11 13 16.6407552 14 16.6407552"></polygon>
    <path d="M24.5,12.25 C24.5,5.48451181 19.0154882,0 12.25,0 C5.48451181,0 0,5.48451181 0,12.25 C0,19.0154882 5.48451181,24.5 12.25,24.5 C19.0154882,24.5 24.5,19.0154882 24.5,12.25 Z M1.5,12.25 C1.5,6.31293894 6.31293894,1.5 12.25,1.5 C18.1870611,1.5 23,6.31293894 23,12.25 C23,18.1870611 18.1870611,23 12.25,23 C6.31293894,23 1.5,18.1870611 1.5,12.25 Z" id="Oval" stroke="#979797" stroke-width="1" fill="#777777" fill-rule="evenodd"></path>
</svg>
