<?xml version="1.0" encoding="utf-8"?>
<!-- Generator: Adobe Illustrator 16.0.4, SVG Export Plug-In . SVG Version: 6.00 Build 0)  -->
<!DOCTYPE svg PUBLIC "-//W3C//DTD SVG 1.1//EN" "http://www.w3.org/Graphics/SVG/1.1/DTD/svg11.dtd">
<svg version="1.1" id="Layer_1" xmlns="http://www.w3.org/2000/svg" xmlns:xlink="http://www.w3.org/1999/xlink" x="0px" y="0px"
	 width="155.125px" height="27.25px" viewBox="0 0 155.125 27.25" enable-background="new 0 0 155.125 27.25" xml:space="preserve">
<g>
	<g>
		<path id="SVGID_1_" fill="#60CDA2" d="M19.988,3.298C15.453-1.099,8.102-1.099,3.565,3.297c-4.534,4.395-4.536,11.521,0,15.915
			c2.26,2.188,8.184,7.412,8.184,7.412s5.965-5.208,8.239-7.411C24.523,14.816,24.525,7.691,19.988,3.298 M11.778,14.095
			c-1.556,0-2.932-1.367-2.932-2.911c0-1.438,1.376-2.771,2.932-2.771c1.556,0,2.931,1.298,2.931,2.771
			C14.708,12.763,13.406,14.095,11.778,14.095"/>
	</g>
</g>
<g>
	<g>
		<path id="SVGID_3_" fill="#FFFFFF" d="M45.748,19.02v0.426c-0.019,0.646-0.203,1.158-0.558,1.537
			c-0.352,0.379-0.812,0.568-1.379,0.568c-0.587,0-1.062-0.195-1.423-0.583c-0.363-0.388-0.544-0.896-0.544-1.522V19.02v-8.792
			V9.801c0.02-0.645,0.206-1.157,0.558-1.537c0.352-0.379,0.813-0.568,1.38-0.568c0.587,0,1.062,0.195,1.423,0.583
			c0.362,0.389,0.543,0.896,0.543,1.522v0.427V19.02z"/>
	</g>
</g>
<g>
	<g>
		<path id="SVGID_5_" fill="#FFFFFF" d="M53.436,24.312v0.427c-0.019,0.661-0.2,1.178-0.543,1.548
			c-0.343,0.368-0.809,0.554-1.395,0.554c-0.587,0-1.062-0.19-1.423-0.569c-0.362-0.379-0.543-0.891-0.543-1.535v-0.426V10.143
			c0-0.455,0.019-0.796,0.059-1.024c0.039-0.228,0.117-0.437,0.235-0.626c0.313-0.53,0.841-0.796,1.584-0.796
			c0.921,0,1.538,0.455,1.851,1.365c0.626-0.53,1.243-0.906,1.85-1.123c0.604-0.219,1.319-0.329,2.14-0.329
			c0.978,0,1.884,0.176,2.716,0.526c0.831,0.352,1.545,0.839,2.143,1.465c0.596,0.626,1.066,1.371,1.41,2.234
			c0.342,0.863,0.513,1.797,0.513,2.801c0,1.007-0.171,1.935-0.513,2.789c-0.344,0.853-0.813,1.593-1.41,2.218
			c-0.598,0.627-1.303,1.114-2.114,1.465c-0.812,0.352-1.698,0.526-2.657,0.526c-0.763,0-1.453-0.104-2.069-0.311
			c-0.617-0.207-1.229-0.546-1.835-1.017L53.436,24.312L53.436,24.312z M56.636,17.852c0.45,0,0.875-0.086,1.276-0.256
			c0.4-0.17,0.754-0.397,1.058-0.683c0.303-0.283,0.542-0.616,0.718-0.996c0.176-0.379,0.264-0.787,0.264-1.224
			c0-0.454-0.088-0.881-0.264-1.279c-0.176-0.399-0.411-0.74-0.705-1.024c-0.293-0.285-0.641-0.512-1.042-0.683
			s-0.837-0.256-1.306-0.256c-0.451,0-0.876,0.085-1.278,0.256c-0.401,0.171-0.749,0.398-1.042,0.683
			c-0.292,0.284-0.527,0.621-0.704,1.01c-0.176,0.389-0.264,0.81-0.264,1.266c0,0.436,0.087,0.85,0.264,1.236
			c0.176,0.391,0.411,0.728,0.704,1.011c0.294,0.284,0.641,0.513,1.042,0.683C55.759,17.766,56.185,17.852,56.636,17.852z"/>
	</g>
</g>
<g>
	<g>
		<path id="SVGID_7_" fill="#FFFFFF" d="M70.492,24.312v0.427c-0.02,0.661-0.201,1.178-0.543,1.548
			c-0.343,0.368-0.808,0.554-1.395,0.554c-0.587,0-1.061-0.19-1.424-0.569c-0.362-0.379-0.543-0.891-0.543-1.535v-0.426V10.143
			c0-0.455,0.019-0.796,0.058-1.024c0.04-0.228,0.119-0.437,0.235-0.626c0.313-0.53,0.841-0.796,1.584-0.796
			c0.92,0,1.537,0.455,1.851,1.365c0.626-0.53,1.242-0.906,1.849-1.123c0.606-0.218,1.321-0.328,2.143-0.328
			c0.978,0,1.882,0.176,2.716,0.526c0.831,0.352,1.545,0.839,2.142,1.465s1.067,1.371,1.41,2.234
			c0.343,0.863,0.514,1.797,0.514,2.801c0,1.006-0.171,1.936-0.514,2.789s-0.812,1.594-1.41,2.219
			c-0.597,0.625-1.301,1.113-2.114,1.465c-0.812,0.351-1.698,0.525-2.656,0.525c-0.764,0-1.454-0.104-2.07-0.311
			c-0.616-0.207-1.229-0.547-1.834-1.018L70.492,24.312L70.492,24.312z M73.692,17.852c0.45,0,0.875-0.086,1.276-0.256
			c0.401-0.17,0.754-0.397,1.058-0.683c0.302-0.283,0.542-0.616,0.718-0.996c0.176-0.379,0.264-0.787,0.264-1.224
			c0-0.454-0.087-0.881-0.264-1.279c-0.177-0.399-0.411-0.74-0.704-1.024c-0.295-0.285-0.643-0.512-1.043-0.683
			s-0.836-0.256-1.306-0.256c-0.451,0-0.876,0.085-1.278,0.256c-0.401,0.171-0.748,0.398-1.042,0.683
			c-0.292,0.284-0.528,0.621-0.705,1.01c-0.175,0.389-0.264,0.81-0.264,1.266c0,0.436,0.088,0.85,0.264,1.236
			c0.177,0.391,0.412,0.728,0.705,1.011c0.294,0.284,0.641,0.513,1.042,0.683C72.816,17.766,73.242,17.852,73.692,17.852z"/>
	</g>
</g>
<g>
	<g>
		<path id="SVGID_9_" fill="#FFFFFF" d="M87.607,19.02v0.426c-0.021,0.646-0.207,1.158-0.559,1.537s-0.812,0.568-1.379,0.568
			c-0.588,0-1.062-0.195-1.424-0.583c-0.363-0.388-0.544-0.896-0.544-1.522V19.02v-8.792V9.801c0.021-0.645,0.205-1.157,0.558-1.537
			c0.352-0.379,0.812-0.568,1.379-0.568c0.588,0,1.062,0.195,1.424,0.583c0.362,0.389,0.543,0.896,0.543,1.522v0.427v8.792H87.607z"
			/>
	</g>
</g>
<g>
	<g>
		<path id="SVGID_11_" fill="#FFFFFF" d="M98.865,21.323c-0.617,0.208-1.307,0.312-2.07,0.312c-0.958,0-1.844-0.176-2.656-0.526
			s-1.517-0.838-2.113-1.465c-0.598-0.625-1.067-1.364-1.408-2.218c-0.344-0.854-0.516-1.782-0.516-2.788
			c0-1.005,0.172-1.938,0.516-2.802c0.341-0.863,0.812-1.607,1.408-2.234c0.598-0.626,1.311-1.113,2.143-1.465
			s1.736-0.528,2.716-0.528c0.822,0,1.536,0.11,2.144,0.328c0.605,0.217,1.223,0.593,1.849,1.123
			c0.332-0.91,0.949-1.365,1.851-1.365c0.351,0,0.67,0.071,0.955,0.213c0.281,0.142,0.492,0.336,0.629,0.583
			c0.117,0.209,0.195,0.427,0.234,0.654c0.04,0.228,0.059,0.56,0.059,0.996v14.168v0.426c-0.019,0.664-0.205,1.181-0.558,1.55
			s-0.821,0.555-1.409,0.555c-0.568,0-1.031-0.194-1.394-0.583s-0.542-0.896-0.542-1.521v-0.426v-4.013
			C100.093,20.771,99.482,21.114,98.865,21.323 M97.5,17.852c0.45,0,0.876-0.086,1.275-0.256c0.401-0.17,0.75-0.397,1.043-0.683
			c0.293-0.283,0.529-0.62,0.705-1.011c0.177-0.389,0.264-0.801,0.264-1.236c0-0.457-0.087-0.877-0.264-1.266
			c-0.176-0.389-0.412-0.726-0.705-1.01c-0.293-0.285-0.642-0.512-1.043-0.683c-0.399-0.171-0.826-0.256-1.275-0.256
			c-0.471,0-0.906,0.085-1.307,0.256c-0.402,0.171-0.75,0.398-1.043,0.683c-0.293,0.284-0.528,0.625-0.703,1.024
			c-0.178,0.398-0.266,0.825-0.266,1.279c0,0.438,0.088,0.845,0.266,1.224c0.175,0.379,0.416,0.712,0.719,0.996
			c0.302,0.284,0.654,0.513,1.057,0.683S97.051,17.852,97.5,17.852"/>
	</g>
</g>
<g>
	<g>
		<path id="SVGID_13_" fill="#FFFFFF" d="M85.641,2.13c0.646,0,1.193,0.219,1.644,0.654c0.45,0.437,0.675,0.967,0.675,1.593
			s-0.23,1.162-0.689,1.607c-0.459,0.446-1.022,0.669-1.688,0.669c-0.312,0-0.612-0.062-0.896-0.186s-0.533-0.285-0.748-0.483
			c-0.215-0.199-0.386-0.431-0.514-0.697c-0.128-0.265-0.191-0.55-0.191-0.854c0-0.663,0.23-1.213,0.69-1.65
			C84.382,2.349,84.954,2.13,85.641,2.13"/>
	</g>
</g>
<g>
	<g>
		<path id="SVGID_15_" fill="#FFFFFF" d="M43.782,2.13c0.646,0,1.193,0.219,1.644,0.654c0.45,0.437,0.675,0.967,0.675,1.593
			s-0.23,1.162-0.69,1.607c-0.461,0.446-1.023,0.669-1.688,0.669c-0.312,0-0.611-0.062-0.896-0.186
			c-0.284-0.124-0.534-0.285-0.749-0.483c-0.214-0.199-0.385-0.431-0.513-0.697c-0.127-0.265-0.191-0.55-0.191-0.854
			c0-0.663,0.23-1.213,0.69-1.65C42.523,2.349,43.097,2.13,43.782,2.13"/>
	</g>
</g>
<g>
	<g>
		<path id="SVGID_17_" fill="#FFFFFF" d="M32.216,5.63V5.203c0.019-0.664,0.206-1.18,0.558-1.55c0.352-0.37,0.822-0.555,1.409-0.555
			c0.568,0,1.032,0.195,1.394,0.584C35.94,4.07,36.12,4.578,36.12,5.203V5.63v2.266h0.441h0.411c0.587,0.019,1.058,0.18,1.409,0.483
			c0.353,0.304,0.529,0.711,0.529,1.224c0,0.494-0.181,0.901-0.543,1.223c-0.363,0.322-0.826,0.484-1.395,0.484h-0.411H36.12v7.709
			v0.426c-0.019,0.646-0.205,1.158-0.558,1.537c-0.351,0.379-0.821,0.568-1.408,0.568c-0.568,0-1.033-0.195-1.394-0.583
			c-0.363-0.388-0.544-0.896-0.544-1.522V19.02V11.31H32.01c-0.626,0-1.119-0.151-1.482-0.455c-0.362-0.303-0.542-0.721-0.542-1.252
			c0-1.176,0.743-1.745,2.23-1.707V5.63z"/>
	</g>
</g>
<g>
	<path fill="#6FD4B1" d="M119.852,21.551v-8.309c0-1.047-0.238-1.828-0.715-2.344s-1.223-0.773-2.238-0.773
		c-1.352,0-2.338,0.367-2.959,1.102s-0.932,1.938-0.932,3.609v6.715h-1.945V3.316h1.945v5.52c0,0.664-0.031,1.215-0.094,1.652h0.117
		c0.383-0.617,0.928-1.104,1.635-1.459s1.514-0.533,2.42-0.533c1.57,0,2.748,0.373,3.533,1.119s1.178,1.932,1.178,3.557v8.379
		H119.852z"/>
	<path fill="#6FD4B1" d="M127.621,8.707v8.332c0,1.047,0.238,1.828,0.715,2.344s1.223,0.773,2.238,0.773
		c1.344,0,2.326-0.367,2.947-1.102s0.932-1.934,0.932-3.598v-6.75h1.945v12.844h-1.605l-0.281-1.723h-0.105
		c-0.398,0.633-0.951,1.117-1.658,1.453s-1.514,0.504-2.42,0.504c-1.562,0-2.732-0.371-3.51-1.113s-1.166-1.93-1.166-3.562V8.707
		H127.621z"/>
	<path fill="#6FD4B1" d="M140.359,5.227c0-0.445,0.109-0.771,0.328-0.979s0.492-0.311,0.82-0.311c0.312,0,0.582,0.105,0.809,0.316
		s0.34,0.535,0.34,0.973s-0.113,0.764-0.34,0.979s-0.496,0.322-0.809,0.322c-0.328,0-0.602-0.107-0.82-0.322
		S140.359,5.664,140.359,5.227z M142.469,21.551h-1.945V8.707h1.945V21.551z"/>
	<path fill="#6FD4B1" d="M154.879,18.047c0,1.195-0.445,2.117-1.336,2.766s-2.141,0.973-3.75,0.973c-1.703,0-3.031-0.27-3.984-0.809
		v-1.805c0.617,0.312,1.279,0.559,1.986,0.738s1.389,0.27,2.045,0.27c1.016,0,1.797-0.162,2.344-0.486s0.82-0.818,0.82-1.482
		c0-0.5-0.217-0.928-0.65-1.283s-1.279-0.775-2.537-1.26c-1.195-0.445-2.045-0.834-2.549-1.166s-0.879-0.709-1.125-1.131
		s-0.369-0.926-0.369-1.512c0-1.047,0.426-1.873,1.277-2.479s2.02-0.908,3.504-0.908c1.383,0,2.734,0.281,4.055,0.844l-0.691,1.582
		c-1.289-0.531-2.457-0.797-3.504-0.797c-0.922,0-1.617,0.145-2.086,0.434s-0.703,0.688-0.703,1.195
		c0,0.344,0.088,0.637,0.264,0.879s0.459,0.473,0.85,0.691s1.141,0.535,2.25,0.949c1.523,0.555,2.553,1.113,3.088,1.676
		S154.879,17.195,154.879,18.047z"/>
</g>
</svg>
