<svg width="57px" height="74px" viewBox="-2 -2 57 74" version="1.1" xmlns="http://www.w3.org/2000/svg" xmlns:xlink="http://www.w3.org/1999/xlink">
    <!-- Generator: Sketch 40.3 (33839) - http://www.bohemiancoding.com/sketch -->
    <desc>Created with Sketch.</desc>
    <defs></defs>
    <g id="Page-1" stroke="none" stroke-width="1" fill="none" fill-rule="evenodd" transform="translate(-2.000000, -2.000000)">
        <path d="M35.4029589,65.1247845 C34.8660861,68.2118193 32.1712017,70.5 29,70.5 C25.7850928,70.5 23.0654732,68.1495342 22.5772479,65.0070214 C22.525939,64.6771279 22.5,64.3410465 22.5,64 L19.5,64 C19.5,64.4952987 19.5378359,64.9855227 19.6128494,65.4678267 C20.3272447,70.0661064 24.3004505,73.5 29,73.5 C33.6356682,73.5 37.5728205,70.1570307 38.3585255,65.6392023 C38.4523476,65.1005798 38.5,64.5528239 38.5,64 L35.5,64 C35.5,64.379705 35.4673308,64.7552323 35.4029589,65.1247845 Z" id="Stroke-1" fill="#ABABAB"></path>
        <path d="M44.967707,27.3115474 C46.0968932,31.1907679 46.3668268,35.3150523 46.1502774,38.8724821 C46.1277355,39.2427961 46.105738,39.4981287 46.0922154,39.6224973 C45.8236341,45.8584326 46.8290086,50.1704169 48.7339248,52.9585241 C49.3686888,53.8875885 50.0674878,54.5883904 50.7850367,55.0875786 C51.256811,55.415785 51.6607789,55.6081829 51.9540118,55.6995863 C52.5264041,55.9017973 52.9250547,56.2089156 53.1776715,56.5832423 C53.4258547,56.9509993 53.506681,57.334052 53.5000982,57.5562344 C53.4524068,57.9784592 53.2628414,58.2048351 52.8778184,58.3564146 C52.5798843,58.4737081 52.2272596,58.5111795 51.9662213,58.4981638 C51.9520983,58.4972934 29.2459352,58.4926054 29.2459352,58.4926054 L27.7540648,58.4926054 L5.16569293,58.4926054 C4.77274039,58.5111795 4.42011571,58.4737081 4.12218161,58.3564146 C3.73715859,58.2048351 3.54759324,57.9784592 3.49289912,57.4581798 C3.49331901,57.334052 3.57414533,56.9509993 3.82232852,56.5832423 C4.07494533,56.2089156 4.4735959,55.9017973 5.09701116,55.6826731 C5.33922107,55.6081829 5.74318903,55.415785 6.21496329,55.0875786 C6.93251219,54.5883904 7.63131119,53.8875885 8.26607515,52.9585241 C10.1709914,50.1704169 11.1763659,45.8584326 10.9152175,39.7208706 C10.894262,39.4981287 10.8722645,39.2427961 10.8497226,38.8724821 C10.6331732,35.3150523 10.9031068,31.1907679 12.032293,27.3115474 C14.2055582,19.8454847 18.9452545,15.5 27.2312222,15.5 C28.0596494,15.5 28.7312222,14.8284271 28.7312222,14 C28.7312222,13.1715729 28.0596494,12.5 27.2312222,12.5 C17.4762545,12.5 11.6695428,17.823754 9.15184371,26.4730893 C7.91052077,30.7375459 7.61957453,35.1828801 7.85526538,39.054762 C7.88078306,39.4739613 7.90684512,39.7764722 7.92536225,39.9467761 C8.15337719,45.3819427 7.29554669,49.0611208 5.7890211,51.2661284 C5.0784026,52.3062164 4.45101928,52.7426777 4.15322723,52.8355022 C2.87175803,53.2849047 1.94951659,53.9953946 1.33561702,54.9050689 C0.96202061,55.4586628 0.726537941,56.0484439 0.601143557,56.6427139 C0.518532793,57.0342235 0.493221388,57.3751892 0.501217632,57.6450789 C0.687101008,59.4627845 1.64324894,60.6046008 3.02321223,61.1478777 C3.78330301,61.4471174 4.53349143,61.5268356 5.18317653,61.4944416 C5.2633449,61.489766 27.7540648,61.4926054 27.7540648,61.4926054 L29.2459352,61.4926054 L51.8343071,61.4926054 C52.4665086,61.5268356 53.216697,61.4471174 53.9767878,61.1478777 C55.3567511,60.6046008 56.312899,59.4627845 56.4906603,57.7718251 C56.5067786,57.3751892 56.4814672,57.0342235 56.3988564,56.6427139 C56.2734621,56.0484439 56.0379794,55.4586628 55.664383,54.9050689 C55.0504834,53.9953946 54.128242,53.2849047 52.8977957,52.8524153 C52.5489807,52.7426777 51.9215974,52.3062164 51.2109789,51.2661284 C49.7044533,49.0611208 48.8466228,45.3819427 49.0820706,39.8484028 C49.0931549,39.7764722 49.1192169,39.4739613 49.1447346,39.054762 C49.3804255,35.1828801 49.0894792,30.7375459 47.8481563,26.4730893 C45.3304572,17.823754 39.5237455,12.5 29.7687778,12.5 C28.9403506,12.5 28.2687778,13.1715729 28.2687778,14 C28.2687778,14.8284271 28.9403506,15.5 29.7687778,15.5 C38.0547455,15.5 42.7944418,19.8454847 44.967707,27.3115474 Z" id="Stroke-3" fill="#ABABAB"></path>
        <path d="M29,12.5 C26.5142566,12.5 24.5,10.4858499 24.5,8.00031731 C24.5,5.51461458 26.5144268,3.5 29,3.5 C31.4855732,3.5 33.5,5.51461458 33.5,8.00031731 C33.5,10.4858499 31.4857434,12.5 29,12.5 Z M29,0.5 C24.8575099,0.5 21.5,3.85782295 21.5,8.00031731 C21.5,12.1427397 24.8574379,15.5 29,15.5 C33.1425621,15.5 36.5,12.1427397 36.5,8.00031731 C36.5,3.85782295 33.1424901,0.5 29,0.5 Z" id="Stroke-5" fill="#ABABAB"></path>
    </g>
</svg>