
<svg width="21px" height="23px" viewBox="-1 0 21 23" version="1.1" xmlns="http://www.w3.org/2000/svg" xmlns:xlink="http://www.w3.org/1999/xlink">
    <!-- Generator: Sketch 40.1 (33804) - http://www.bohemiancoding.com/sketch -->
    <desc>Created with Sketch.</desc>
    <defs></defs>
    <path d="M18.9583333,16.5885417 C19.5833333,17.2309028 19.8958333,17.9861111 19.8958333,18.8541667 C19.8958333,19.7569444 19.5746528,20.5295139 18.9322917,21.171875 C18.2899306,21.8142361 17.5347222,22.1354167 16.6666667,22.1354167 C15.7986111,22.1354167 15.0434028,21.8142361 14.4010417,21.171875 C13.7586806,20.5295139 13.4375,19.7569444 13.4375,18.8541667 C13.4375,18.5069444 13.4548611,18.2638889 13.4895833,18.125 L5.625,13.5416667 C4.96527778,14.1319444 4.20138889,14.4270833 3.33333333,14.4270833 C2.43055556,14.4270833 1.64930556,14.0972222 0.989583333,13.4375 C0.329861111,12.7777778 -6.57252031e-14,11.9965278 -6.57252031e-14,11.09375 C-6.57252031e-14,10.1909722 0.329861111,9.40972222 0.989583333,8.75 C1.64930556,8.09027778 2.43055556,7.76041667 3.33333333,7.76041667 C4.20138889,7.76041667 4.96527778,8.05555556 5.625,8.64583333 L13.4375,4.11458333 C13.3680556,3.76736111 13.3333333,3.50694444 13.3333333,3.33333333 C13.3333333,2.43055556 13.6631944,1.64930556 14.3229167,0.989583333 C14.9826389,0.329861111 15.7638889,0 16.6666667,0 C17.5694444,0 18.3506944,0.329861111 19.0104167,0.989583333 C19.6701389,1.64930556 20,2.43055556 20,3.33333333 C20,4.23611111 19.6701389,5.01736111 19.0104167,5.67708333 C18.3506944,6.33680556 17.5694444,6.66666667 16.6666667,6.66666667 C15.8333333,6.66666667 15.0694444,6.35416667 14.375,5.72916667 L6.5625,10.3125 C6.63194444,10.6597222 6.66666667,10.9201389 6.66666667,11.09375 C6.66666667,11.2673611 6.63194444,11.5277778 6.5625,11.875 L14.4791667,16.4583333 C15.1041667,15.9027778 15.8333333,15.625 16.6666667,15.625 C17.5694444,15.625 18.3333333,15.9461806 18.9583333,16.5885417 Z" id="Page-1" stroke="none" fill="#FFFFFF" fill-rule="evenodd"></path>
</svg>