<?xml version="1.0" encoding="utf-8"?>
<!-- Generator: Adobe Illustrator 16.0.4, SVG Export Plug-In . SVG Version: 6.00 Build 0)  -->
<!DOCTYPE svg PUBLIC "-//W3C//DTD SVG 1.1//EN" "http://www.w3.org/Graphics/SVG/1.1/DTD/svg11.dtd">
<svg version="1.1" id="Layer_1" xmlns="http://www.w3.org/2000/svg" xmlns:xlink="http://www.w3.org/1999/xlink" x="0px" y="0px"
	 width="34px" height="34px" viewBox="0 0 34 34" enable-background="new 0 0 34 34" xml:space="preserve">
<path fill-rule="evenodd" clip-rule="evenodd" fill="#78CBEF" d="M0,0v34h34V0H0z M25.154,12.818
	c0.007,0.18,0.011,0.361,0.011,0.544c0,5.562-4.23,11.972-11.969,11.972c-2.375,0-4.586-0.697-6.448-1.89
	c0.329,0.039,0.664,0.058,1.003,0.058c1.971,0,3.785-0.672,5.225-1.801c-1.841-0.033-3.395-1.25-3.929-2.92
	c0.256,0.049,0.52,0.074,0.791,0.074c0.384,0,0.756-0.049,1.109-0.148c-1.925-0.385-3.375-2.086-3.375-4.125v-0.052
	c0.567,0.314,1.216,0.504,1.906,0.525c-1.129-0.754-1.872-2.043-1.872-3.501c0-0.771,0.208-1.494,0.569-2.118
	c2.077,2.548,5.175,4.22,8.671,4.397c-0.072-0.308-0.107-0.628-0.107-0.958c0-2.322,1.883-4.208,4.205-4.208
	c1.211,0,2.305,0.512,3.071,1.328c0.959-0.188,1.859-0.537,2.672-1.019c-0.314,0.981-0.98,1.807-1.85,2.327
	c0.85-0.103,1.662-0.328,2.416-0.663C26.69,11.484,25.976,12.225,25.154,12.818z"/>
</svg>
