<svg width="53px" height="61px" viewBox="-2 -2 53 61" version="1.1" xmlns="http://www.w3.org/2000/svg" xmlns:xlink="http://www.w3.org/1999/xlink">
    <!-- Generator: Sketch 41.2 (35397) - http://www.bohemiancoding.com/sketch -->
    <desc>Created with Sketch.</desc>
    <defs></defs>
    <path d="M1.5,44.7978846 L1.42540564,45.2650235 C1.50857019,45.0112592 2.11120756,44.2216029 3.01470466,43.3444242 C4.20500651,42.1887953 5.75612431,41.003178 7.54918862,39.9345704 C12.2196124,37.1511507 17.8670918,35.493172 24.2135011,35.500021 L24.7842655,35.5000218 C31.1325536,35.493172 36.7800539,37.1511351 41.4505041,39.9345704 C43.2435469,41.0031652 44.7946614,42.1887729 45.9850446,43.3444418 C46.8886203,44.2216672 47.4913996,45.011406 47.5747246,45.2654207 L47.5,44.7978846 L47.5,58 L50.5,58 L50.5,44.7978846 L50.5,44.5581451 L50.4252754,44.3303485 C49.8556915,42.5939822 46.8078192,39.6349927 42.9863429,37.357518 C37.8648995,34.3053054 31.6901946,32.4925685 24.7826468,32.5000227 L24.2151199,32.5000218 C17.3094468,32.4925685 11.1347642,34.3053227 6.01334979,37.357518 C2.19160274,39.635154 -0.856333228,42.594305 -1.42540564,44.3307457 L-1.5,44.5583594 L-1.5,44.7978846 L-1.5,58 L1.5,58 L1.5,44.7978846 Z" id="Stroke-1" stroke="none" fill="#60CDA2" fill-rule="evenodd"></path>
    <path d="M24.5,25.5 C17.8725213,25.5 12.5,20.1273857 12.5,13.5 C12.5,6.87261429 17.8725213,1.5 24.5,1.5 C31.1274787,1.5 36.5,6.87261429 36.5,13.5 C36.5,20.1273857 31.1274787,25.5 24.5,25.5 Z M24.5,-1.5 C16.2156554,-1.5 9.5,5.21577167 9.5,13.5 C9.5,21.7842283 16.2156554,28.5 24.5,28.5 C32.7843446,28.5 39.5,21.7842283 39.5,13.5 C39.5,5.21577167 32.7843446,-1.5 24.5,-1.5 Z" id="Stroke-3" stroke="none" fill="#60CDA2" fill-rule="evenodd"></path>
</svg>