<?xml version="1.0" encoding="utf-8"?>
<!-- Generator: Adobe Illustrator 16.0.4, SVG Export Plug-In . SVG Version: 6.00 Build 0)  -->
<!DOCTYPE svg PUBLIC "-//W3C//DTD SVG 1.1//EN" "http://www.w3.org/Graphics/SVG/1.1/DTD/svg11.dtd">
<svg version="1.1" id="Layer_1" xmlns="http://www.w3.org/2000/svg" xmlns:xlink="http://www.w3.org/1999/xlink" x="0px" y="0px"
	 width="34px" height="34px" viewBox="0 0 34 34" enable-background="new 0 0 34 34" xml:space="preserve">
<g>
	<path fill-rule="evenodd" clip-rule="evenodd" fill="#1D9D38" d="M17.195,7.917c-4.877,0-8.844,3.938-8.844,8.777
		c0,1.92,0.625,3.698,1.685,5.145l-1.105,3.26l3.399-1.08c1.396,0.916,3.069,1.451,4.866,1.451c4.876,0,8.845-3.937,8.845-8.775
		C26.04,11.854,22.072,7.917,17.195,7.917z M22.356,20.315c-0.215,0.596-1.268,1.173-1.741,1.215
		c-0.473,0.043-0.473,0.385-3.095-0.639c-2.621-1.025-4.276-3.693-4.404-3.863c-0.13-0.17-1.053-1.387-1.053-2.646
		c0-1.258,0.666-1.877,0.902-2.133c0.236-0.256,0.516-0.32,0.688-0.32s0.344,0.021,0.494,0.021s0.365-0.086,0.58,0.426
		c0.215,0.513,0.731,1.771,0.795,1.899c0.064,0.129,0.107,0.278,0.021,0.448c-0.085,0.172-0.128,0.278-0.257,0.428
		c-0.129,0.148-0.271,0.333-0.387,0.447c-0.128,0.128-0.263,0.266-0.113,0.521c0.151,0.258,0.668,1.094,1.435,1.772
		c0.985,0.872,1.816,1.142,2.073,1.271c0.258,0.127,0.408,0.105,0.559-0.065c0.15-0.171,0.645-0.747,0.817-1.003
		c0.171-0.256,0.344-0.213,0.58-0.128c0.236,0.085,1.504,0.704,1.762,0.833c0.257,0.127,0.429,0.191,0.494,0.298
		C22.571,19.204,22.571,19.716,22.356,20.315z"/>
	<path fill-rule="evenodd" clip-rule="evenodd" fill="#1D9D38" d="M0,0v34h34V0H0z M17.195,27.131c-1.845,0-3.577-0.471-5.085-1.299
		l-5.824,1.852l1.899-5.602c-0.958-1.572-1.51-3.418-1.51-5.389c0-5.766,4.71-10.439,10.52-10.439c5.811,0,10.52,4.674,10.52,10.439
		C27.714,22.458,23.005,27.131,17.195,27.131z"/>
</g>
</svg>
