<?xml version="1.0" encoding="utf-8"?>
<!-- Generator: Adobe Illustrator 16.0.4, SVG Export Plug-In . SVG Version: 6.00 Build 0)  -->
<!DOCTYPE svg PUBLIC "-//W3C//DTD SVG 1.1//EN" "http://www.w3.org/Graphics/SVG/1.1/DTD/svg11.dtd">
<svg version="1.1" id="Layer_1" xmlns="http://www.w3.org/2000/svg" xmlns:xlink="http://www.w3.org/1999/xlink" x="0px" y="0px"
	 width="976.452px" height="260.057px" viewBox="0 0 976.452 260.057" enable-background="new 0 0 976.452 260.057"
	 xml:space="preserve">
<g>
	<path fill="#60CDA2" d="M699.486,70.465h12.32v42.28h0.28c1.96-3.5,5.04-6.58,8.819-8.681c3.641-2.101,7.98-3.5,12.601-3.5
		c9.1,0,23.659,5.601,23.659,28.979v40.32h-12.319v-38.92c0-10.92-4.061-20.16-15.681-20.16c-7.979,0-14.279,5.6-16.52,12.32
		c-0.7,1.68-0.84,3.5-0.84,5.88v40.88h-12.32V70.465z"/>
	<path fill="#60CDA2" d="M833.885,151.384c0,7,0.14,13.16,0.56,18.48h-10.92l-0.7-11.061h-0.279
		c-3.221,5.461-10.36,12.601-22.4,12.601c-10.64,0-23.38-5.88-23.38-29.68v-39.62h12.32v37.52c0,12.881,3.92,21.561,15.12,21.561
		c8.26,0,14-5.74,16.239-11.2c0.7-1.819,1.12-4.06,1.12-6.3v-41.58h12.32V151.384z"/>
	<path fill="#60CDA2" d="M868.043,83.064c0.141,4.2-2.939,7.56-7.84,7.56c-4.34,0-7.42-3.359-7.42-7.56c0-4.34,3.221-7.7,7.7-7.7
		C865.104,75.364,868.043,78.725,868.043,83.064z M854.324,169.864v-67.76h12.32v67.76H854.324z"/>
	<path fill="#60CDA2" d="M885.404,157.265c3.64,2.38,10.08,4.899,16.24,4.899c8.96,0,13.159-4.479,13.159-10.079
		c0-5.881-3.5-9.101-12.6-12.461c-12.18-4.34-17.92-11.06-17.92-19.18c0-10.92,8.82-19.88,23.38-19.88c6.86,0,12.88,1.96,16.66,4.2
		l-3.08,8.96c-2.66-1.681-7.56-3.92-13.86-3.92c-7.279,0-11.34,4.2-11.34,9.239c0,5.601,4.061,8.121,12.88,11.48
		c11.76,4.48,17.78,10.359,17.78,20.439c0,11.9-9.24,20.301-25.34,20.301c-7.42,0-14.28-1.82-19.04-4.621L885.404,157.265z"/>
</g>
<path fill-rule="evenodd" clip-rule="evenodd" fill="#60CDA2" d="M168.588,73.207c-25.84-24.943-67.742-24.943-93.592-0.004
	c-25.84,24.936-25.846,65.365,0,90.301c12.883,12.424,46.641,42.055,46.641,42.055s33.994-29.551,46.951-42.051
	C194.434,138.568,194.44,98.139,168.588,73.207z M136.086,88.633h14.008v17.709l-14.008-13.55V88.633z M157.233,132.663
	l-5.766-5.765v8.582v4.891v14.916l-18.631,17.037v-32.232h-22.613v31.426l-18.1-16.047v-19.99v-8.583l-5.766,5.766l-4.045-4.045
	l39.48-39.481l39.484,39.481L157.233,132.663z"/>
<g>
	<g>
		<defs>
			<path id="SVGID_1_" d="M237.95,77.514v-2.49c0.113-3.867,1.182-6.885,3.203-9.045c2.021-2.154,4.721-3.236,8.09-3.236
				c3.26,0,5.924,1.135,8.004,3.402c2.084,2.268,3.119,5.23,3.119,8.879v2.49V90.73h2.533h2.357c3.373,0.111,6.07,1.055,8.088,2.824
				c2.021,1.771,3.033,4.148,3.033,7.135c0,2.879-1.039,5.254-3.115,7.137c-2.084,1.883-4.746,2.82-8.006,2.82h-2.357h-2.533v44.984
				v2.486c-0.111,3.764-1.172,6.75-3.203,8.963c-2.014,2.217-4.713,3.32-8.086,3.32c-3.26,0-5.93-1.137-8.002-3.4
				c-2.084-2.268-3.125-5.23-3.125-8.883v-2.486v-44.984h-1.18c-3.594,0-6.43-0.881-8.51-2.654
				c-2.076-1.768-3.117-4.203-3.117-7.303c0-6.857,4.268-10.178,12.807-9.959V77.514z"/>
		</defs>
		<use xlink:href="#SVGID_1_"  overflow="visible" fill-rule="evenodd" clip-rule="evenodd" fill="#FFFFFF"/>
		<clipPath id="SVGID_2_">
			<use xlink:href="#SVGID_1_"  overflow="visible"/>
		</clipPath>
	</g>
	<g>
		<defs>
			<path id="SVGID_3_" d="M315.79,155.646v2.486c-0.117,3.756-1.234,6.742-3.379,8.951c-2.133,2.213-4.916,3.316-8.354,3.316
				c-3.555,0-6.43-1.135-8.619-3.396c-2.201-2.264-3.295-5.227-3.295-8.871v-2.486v-51.234v-2.486
				c0.119-3.756,1.246-6.742,3.377-8.953c2.133-2.213,4.926-3.316,8.359-3.316c3.559,0,6.428,1.135,8.619,3.402
				c2.197,2.264,3.291,5.219,3.291,8.867v2.486V155.646z"/>
		</defs>
		<use xlink:href="#SVGID_3_"  overflow="visible" fill-rule="evenodd" clip-rule="evenodd" fill="#FFFFFF"/>
		<clipPath id="SVGID_4_">
			<use xlink:href="#SVGID_3_"  overflow="visible"/>
		</clipPath>
	</g>
	<g>
		<defs>
			<path id="SVGID_5_" d="M454.639,186.516v2.471c-0.119,3.838-1.166,6.828-3.137,8.969c-1.982,2.133-4.672,3.205-8.068,3.205
				c-3.393,0-6.131-1.1-8.227-3.293c-2.094-2.199-3.141-5.166-3.141-8.902v-2.471v-82.066c0-2.637,0.107-4.611,0.338-5.932
				c0.223-1.32,0.686-2.523,1.363-3.625c1.809-3.074,4.861-4.615,9.154-4.615c5.324,0,8.885,2.637,10.697,7.914
				c3.623-3.076,7.18-5.246,10.689-6.512c3.502-1.264,7.635-1.898,12.393-1.898c5.65,0,10.877,1.02,15.695,3.053
				c4.803,2.031,8.928,4.861,12.385,8.486c3.449,3.625,6.166,7.936,8.143,12.936c1.988,5,2.973,10.41,2.973,16.23
				c0,5.822-0.984,11.207-2.973,16.152c-1.977,4.941-4.693,9.229-8.143,12.85c-3.457,3.625-7.529,6.455-12.223,8.486
				c-4.688,2.033-9.807,3.053-15.357,3.053c-4.41,0-8.396-0.6-11.961-1.801s-7.098-3.164-10.602-5.889V186.516z M473.137,149.084
				c2.594,0,5.059-0.492,7.373-1.479c2.326-0.988,4.357-2.309,6.113-3.959c1.754-1.641,3.133-3.568,4.156-5.768
				c1.018-2.197,1.523-4.555,1.523-7.084c0-2.637-0.506-5.107-1.523-7.412c-1.023-2.311-2.377-4.289-4.072-5.936
				c-1.701-1.646-3.709-2.967-6.027-3.957c-2.316-0.988-4.832-1.48-7.543-1.48c-2.609,0-5.064,0.492-7.389,1.48
				c-2.316,0.99-4.326,2.311-6.02,3.957s-3.057,3.6-4.08,5.85c-1.01,2.252-1.521,4.691-1.521,7.332c0,2.529,0.512,4.92,1.521,7.17
				c1.023,2.252,2.387,4.207,4.08,5.848c1.693,1.65,3.703,2.971,6.02,3.959C468.073,148.592,470.528,149.084,473.137,149.084z"/>
		</defs>
		<use xlink:href="#SVGID_5_"  overflow="visible" fill-rule="evenodd" clip-rule="evenodd" fill="#FFFFFF"/>
		<clipPath id="SVGID_6_">
			<use xlink:href="#SVGID_5_"  overflow="visible"/>
		</clipPath>
	</g>
	<g>
		<defs>
			<path id="SVGID_7_" d="M355.94,186.516v2.471c-0.117,3.838-1.162,6.828-3.141,8.969c-1.982,2.133-4.674,3.205-8.062,3.205
				c-3.393,0-6.137-1.1-8.23-3.293c-2.094-2.199-3.137-5.166-3.137-8.902v-2.471v-82.066c0-2.637,0.109-4.611,0.342-5.932
				c0.223-1.32,0.676-2.523,1.357-3.625c1.811-3.074,4.857-4.615,9.154-4.615c5.322,0,8.887,2.637,10.697,7.914
				c3.617-3.076,7.186-5.246,10.688-6.512c3.51-1.264,7.639-1.898,12.389-1.898c5.654,0,10.887,1.02,15.699,3.053
				c4.811,2.031,8.936,4.861,12.389,8.486c3.451,3.625,6.16,7.936,8.148,12.936c1.977,5,2.971,10.41,2.971,16.23
				c0,5.822-0.994,11.207-2.971,16.152c-1.988,4.941-4.697,9.229-8.148,12.85c-3.453,3.625-7.529,6.455-12.221,8.486
				c-4.699,2.033-9.814,3.053-15.355,3.053c-4.41,0-8.402-0.6-11.961-1.801c-3.564-1.201-7.104-3.164-10.607-5.889V186.516z
				 M374.436,149.084c2.602,0,5.061-0.492,7.381-1.479c2.311-0.988,4.357-2.309,6.113-3.959c1.746-1.641,3.133-3.568,4.148-5.768
				c1.016-2.197,1.527-4.555,1.527-7.084c0-2.637-0.512-5.107-1.527-7.412c-1.016-2.311-2.371-4.289-4.07-5.936
				c-1.695-1.646-3.703-2.967-6.02-3.957c-2.318-0.988-4.838-1.48-7.553-1.48c-2.609,0-5.064,0.492-7.385,1.48
				c-2.322,0.99-4.326,2.311-6.025,3.957c-1.691,1.646-3.051,3.6-4.07,5.85c-1.016,2.252-1.523,4.691-1.523,7.332
				c0,2.529,0.508,4.92,1.523,7.17c1.02,2.252,2.379,4.207,4.07,5.848c1.699,1.65,3.703,2.971,6.025,3.959
				C369.372,148.592,371.827,149.084,374.436,149.084z"/>
		</defs>
		<use xlink:href="#SVGID_7_"  overflow="visible" fill-rule="evenodd" clip-rule="evenodd" fill="#FFFFFF"/>
		<clipPath id="SVGID_8_">
			<use xlink:href="#SVGID_7_"  overflow="visible"/>
		</clipPath>
	</g>
	<g>
		<defs>
			<path id="SVGID_9_" d="M552.252,155.646v2.486c-0.115,3.756-1.248,6.742-3.381,8.951c-2.131,2.213-4.91,3.316-8.352,3.316
				c-3.555,0-6.426-1.135-8.621-3.396c-2.193-2.264-3.293-5.227-3.293-8.871v-2.486v-51.234v-2.486
				c0.123-3.756,1.246-6.742,3.379-8.953c2.131-2.213,4.918-3.316,8.352-3.316c3.564,0,6.436,1.135,8.629,3.402
				c2.191,2.264,3.287,5.219,3.287,8.867v2.486V155.646z"/>
		</defs>
		<use xlink:href="#SVGID_9_"  overflow="visible" fill-rule="evenodd" clip-rule="evenodd" fill="#FFFFFF"/>
		<clipPath id="SVGID_10_">
			<use xlink:href="#SVGID_9_"  overflow="visible"/>
		</clipPath>
	</g>
	<g>
		<defs>
			<path id="SVGID_11_" d="M614.084,169.158c-3.518,1.213-7.451,1.816-11.807,1.816c-5.475,0-10.531-1.016-15.164-3.051
				c-4.635-2.033-8.652-4.869-12.062-8.494c-3.41-3.631-6.09-7.918-8.037-12.863c-1.961-4.953-2.939-10.34-2.939-16.172
				c0-5.822,0.979-11.238,2.939-16.24c1.947-5.004,4.627-9.322,8.037-12.951c3.41-3.631,7.48-6.459,12.223-8.494
				c4.758-2.033,9.914-3.053,15.502-3.053c4.697,0,8.768,0.635,12.232,1.898c3.455,1.266,6.98,3.439,10.553,6.514
				c1.893-5.279,5.42-7.916,10.555-7.916c2.008,0,3.824,0.412,5.455,1.24c1.604,0.824,2.811,1.947,3.588,3.379
				c0.678,1.211,1.125,2.471,1.348,3.795c0.223,1.316,0.33,3.24,0.33,5.77v82.146v2.469c-0.107,3.85-1.17,6.848-3.178,8.992
				c-2.02,2.145-4.697,3.217-8.045,3.217c-3.24,0-5.896-1.131-7.959-3.383c-2.062-2.256-3.094-5.195-3.094-8.826v-2.469v-23.258
				C621.096,165.973,617.602,167.951,614.084,169.158 M606.295,149.035c2.57,0,5.002-0.494,7.287-1.482
				c2.287-0.986,4.273-2.311,5.951-3.961c1.672-1.643,3.018-3.6,4.02-5.854c1.008-2.256,1.508-4.643,1.508-7.174
				c0-2.645-0.5-5.084-1.508-7.34c-1.002-2.256-2.348-4.207-4.02-5.857c-1.678-1.648-3.664-2.969-5.951-3.957
				c-2.285-0.992-4.717-1.486-7.287-1.486c-2.68,0-5.166,0.494-7.453,1.486c-2.293,0.988-4.277,2.309-5.949,3.957
				c-1.678,1.65-3.016,3.633-4.018,5.941c-1.008,2.311-1.518,4.779-1.518,7.422c0,2.527,0.51,4.891,1.518,7.088
				c1.002,2.201,2.371,4.131,4.102,5.773c1.727,1.65,3.734,2.975,6.037,3.961C601.299,148.541,603.733,149.035,606.295,149.035"/>
		</defs>
		<use xlink:href="#SVGID_11_"  overflow="visible" fill-rule="evenodd" clip-rule="evenodd" fill="#FFFFFF"/>
		<clipPath id="SVGID_12_">
			<use xlink:href="#SVGID_11_"  overflow="visible"/>
		</clipPath>
	</g>
	<g>
		<defs>
			<path id="SVGID_13_" d="M538.713,58.896c3.771,0,6.973,1.303,9.598,3.896c2.633,2.598,3.941,5.754,3.941,9.479
				c0,3.727-1.342,6.912-4.025,9.564c-2.688,2.652-5.967,3.975-9.855,3.975c-1.822,0-3.57-0.365-5.217-1.1
				c-1.662-0.732-3.117-1.693-4.381-2.875c-1.254-1.186-2.248-2.566-2.994-4.148c-0.746-1.578-1.115-3.271-1.115-5.076
				c0-3.949,1.348-7.221,4.033-9.818C531.375,60.199,534.717,58.896,538.713,58.896"/>
		</defs>
		<use xlink:href="#SVGID_13_"  overflow="visible" fill-rule="evenodd" clip-rule="evenodd" fill="#FFFFFF"/>
		<clipPath id="SVGID_14_">
			<use xlink:href="#SVGID_13_"  overflow="visible"/>
		</clipPath>
	</g>
	<g>
		<defs>
			<path id="SVGID_15_" d="M302.25,58.896c3.771,0,6.963,1.303,9.598,3.896c2.627,2.598,3.941,5.754,3.941,9.479
				c0,3.727-1.346,6.912-4.029,9.564c-2.691,2.652-5.975,3.975-9.854,3.975c-1.824,0-3.566-0.365-5.225-1.1
				c-1.66-0.732-3.117-1.693-4.377-2.875c-1.25-1.186-2.246-2.566-2.992-4.148c-0.74-1.578-1.111-3.271-1.111-5.076
				c0-3.949,1.34-7.221,4.027-9.818C294.905,60.199,298.252,58.896,302.25,58.896"/>
		</defs>
		<use xlink:href="#SVGID_15_"  overflow="visible" fill-rule="evenodd" clip-rule="evenodd" fill="#FFFFFF"/>
		<clipPath id="SVGID_16_">
			<use xlink:href="#SVGID_15_"  overflow="visible"/>
		</clipPath>
	</g>
</g>
</svg>
